<svg width="420" height="237" viewBox="0 0 420 237" fill="none" xmlns="http://www.w3.org/2000/svg">
<path d="M69.0116 181.421C69.5856 165.743 70.9961 150.108 73.2373 134.58C76.0178 114.569 79.2767 94.6364 84.0803 74.9833C86.1533 66.4922 87.8974 57.9114 89.7311 49.3605C90.4985 45.8125 89.4222 44.5468 85.7447 44.9654C65.1149 47.2975 44.4851 49.7093 23.8553 52.0613C21.6493 52.3596 19.4237 52.4896 17.198 52.45C8.12884 52.131 2.39834 46.6896 0.534684 36.7335C0.217682 35.0101 0.0443443 33.2633 0.0164511 31.5112C-0.107288 29.0287 0.468955 26.5614 1.6795 24.3905C2.89004 22.2196 4.68618 20.4326 6.86314 19.233C12.1651 16.004 18.0849 14.8579 24.0845 14.0208C48.91 10.5526 73.7256 7.0445 98.5611 3.68593C118.394 1.00506 138.326 -0.52972 158.358 0.167906C171.114 0.606414 181.588 5.75888 187.538 17.6384C189.829 22.054 191.025 26.9554 191.025 31.9298C191.025 36.9042 189.829 41.8056 187.538 46.2212C183.285 54.5819 178.533 62.679 173.307 70.4686C163.319 85.6561 151.685 99.6937 138.615 112.326C133.582 117.2 127.821 120.379 120.536 120.179C118.015 120.11 116.769 121.395 116.201 124.375C115.035 130.355 113.69 136.334 112.922 142.444C111.348 154.901 109.803 167.359 108.826 179.896C108.235 188.737 109.321 197.61 112.025 206.047C113.031 209.472 113.765 212.971 114.218 216.512C114.806 220.737 112.633 223.847 109.404 226.288C99.8666 233.524 87.2795 231.72 78.8781 222.073C73.5861 215.993 71.0746 208.808 70.3272 200.964C69.7292 194.496 69.4501 187.929 69.0116 181.421ZM171.712 28.1925C171.802 22.1032 169.719 19.2928 164.736 17.8278C159.155 16.1734 153.534 16.7614 147.953 17.8278C143.06 18.7347 139.801 21.5651 138.555 26.4983C138.017 28.6509 137.492 30.8103 136.98 32.9762C131.844 54.7156 126.722 76.4516 121.613 98.1843C121.522 99.1447 121.556 100.113 121.712 101.065C122.557 100.772 123.358 100.366 124.094 99.8586C142.021 82.9466 156.804 62.9873 167.756 40.9092C169.918 36.5242 171.523 31.9398 171.712 28.1925Z" fill="#C8DA60"/>
<path d="M259.055 152.5C257.959 155.619 256.763 158.718 255.766 161.868C251.939 173.996 247.235 185.697 239.023 195.623C237.292 197.701 235.366 199.61 233.273 201.323C224.044 208.927 208.985 203.217 206.364 192.085C202.228 174.325 204.869 157.662 212.464 141.497C216.674 132.557 221.998 124.185 228.31 116.582C230.601 113.705 233.505 111.375 236.809 109.761C240.114 108.148 243.737 107.291 247.415 107.254C249.482 107.17 251.543 106.957 253.584 106.616C259.832 105.619 263.929 101.902 266.201 96.1911C270.765 84.6604 275.17 73.0898 279.675 61.5192C282.107 55.2206 284.399 48.8622 286.92 42.5836C290.179 34.5111 299.567 32.5478 305.856 38.667C306.935 39.813 307.534 41.3286 307.53 42.9025C307.39 45.5907 306.881 48.2468 306.015 50.7957C300.115 68.1865 293.807 85.4278 288.166 102.898C282.802 119.322 279.224 136.276 277.492 153.466C276.904 159.625 276.904 165.844 276.745 172.043C276.565 178.89 276.356 185.736 276.456 192.573C276.575 201.543 276.984 210.642 280.672 219.023C282.633 223.101 284.968 226.988 287.648 230.634C289.97 234.012 289.312 236.025 285.226 236.703C280.243 237.52 276.077 236.195 272.898 232.208C266.33 223.966 262.802 214.419 261.078 204.164C258.896 191.208 259.324 178.152 259.593 165.097C259.663 161.678 259.793 158.26 259.862 154.842C259.844 154.105 259.787 153.37 259.693 152.639L259.055 152.5ZM222.27 178.361C222.45 180.963 222.549 183.574 222.868 186.165C222.932 186.538 223.085 186.891 223.314 187.193C223.543 187.494 223.842 187.737 224.184 187.899C224.712 188.019 225.639 187.371 226.047 186.813C226.933 185.591 227.691 184.282 228.31 182.906C235.515 166.641 242.741 150.377 249.846 134.072C251.501 130.205 252.948 126.253 254.182 122.233C254.53 121.126 253.903 119.721 253.723 118.455C252.497 118.804 251.272 119.153 250.056 119.522C249.906 119.522 249.797 119.711 249.677 119.811C243.711 124.608 238.61 130.392 234.598 136.913C226.805 149.649 223.237 163.602 222.27 178.361Z" fill="#C8DA60"/>
<path d="M354.98 180.366C347.854 184.093 340.798 188.099 333.473 191.518C324.559 195.77 314.52 197.062 304.82 195.205C293.708 193.122 286.812 185.538 285.935 174.276C285.196 165.889 286.808 157.462 290.589 149.939C295.412 140.342 301.053 131.332 309.574 124.516C317.069 118.536 325.44 116.613 334.669 119.662C337.25 120.515 339.637 121.873 341.69 123.655C343.743 125.438 345.421 127.61 346.628 130.047C349.189 134.89 348.093 139.654 345.572 144.159C341.585 151.275 335.606 156.517 329.217 161.33C323.229 165.964 316.642 169.766 309.634 172.632C309.559 172.657 309.486 172.687 309.415 172.722C307.531 173.778 305.02 174.326 305.089 177.186C305.233 178.702 305.836 180.139 306.817 181.303C307.798 182.468 309.111 183.305 310.581 183.704C314.657 184.701 318.554 183.465 322.241 182.12C331.211 178.891 339.183 173.658 347.156 168.606C349.907 166.871 353.475 165.676 355.129 163.194C356.783 160.712 356.126 157.015 357.003 153.975C360.909 139.963 364.876 125.971 369.022 112.028C373.895 95.6539 378.988 79.3294 383.971 62.9851C385.745 57.2147 389.951 54.5836 395.561 55.5603C400.704 56.4573 403.136 59.7561 401.76 64.8288C399.937 71.5758 397.654 78.1933 395.631 84.8905C388.137 109.636 381.17 134.522 376.536 159.995C375.101 167.898 373.676 175.831 374.274 183.913C374.673 189.365 376.905 191.109 382.297 190.212C389.193 189.076 395.253 185.917 401.083 182.239C404.322 180.246 407.361 177.894 410.58 175.821C411.897 174.946 413.339 174.274 414.856 173.828C415.736 173.513 416.7 173.527 417.57 173.867C418.44 174.208 419.158 174.853 419.59 175.681C419.865 176.385 419.98 177.141 419.927 177.894C419.873 178.647 419.653 179.379 419.281 180.037C416.543 183.871 413.5 187.477 410.182 190.82C400.355 200.298 388.625 205.012 374.832 203.826C365.155 202.999 359.335 198.185 356.734 188.877C355.966 185.937 355.518 182.947 354.98 180.366ZM307.77 156.447C307.85 158.56 309.106 159.437 310.601 158.729C311.587 158.213 312.482 157.54 313.252 156.736C318.793 151.364 322.959 144.986 326.786 138.349C327.185 137.752 327.438 137.069 327.523 136.355C327.523 135.578 327.384 134.442 326.865 134.103C326.475 133.876 326.04 133.737 325.591 133.696C325.142 133.655 324.689 133.712 324.264 133.864C323.366 134.367 322.612 135.091 322.072 135.967C317.627 142.073 313.212 148.205 308.827 154.364C308.407 155.022 308.054 155.72 307.77 156.447Z" fill="#C8DA60"/>
<path d="M172.281 163.602C169.79 166.093 167.567 168.326 165.305 170.578C160.551 175.282 155.937 180.126 150.984 184.62C144.007 190.999 134.779 190.989 127.514 184.909C123.677 181.7 122.73 177.494 123.617 172.83C125.52 163.42 129.444 154.535 135.118 146.789C139.684 140.279 144.731 134.119 150.216 128.362C160.591 117.618 175.131 117.907 185.526 128.611C187.988 131.132 190.419 133.385 193.937 134.591C197.455 135.796 199.698 140.191 199.01 144.726C198.372 148.952 197.176 153.097 196.21 157.273C194.705 163.741 193.499 170.229 195.044 176.857C195.685 179.313 196.525 181.712 197.555 184.032C198.96 187.441 198.143 189.215 194.496 189.304C183.682 189.543 174.773 181.69 173.946 172.501C173.716 170.06 173.387 167.618 173.068 165.186C172.869 164.629 172.605 164.097 172.281 163.602ZM144.217 168.585L144.855 169.262C145.987 168.864 147.067 168.332 148.074 167.678C151.532 164.887 154.97 162.057 158.269 159.087C164.249 153.745 169.67 147.975 173.507 140.889C174.055 139.892 174.364 138.039 173.816 137.251C171.205 133.504 166.919 131.371 162.943 136.464C156.273 145.262 150.469 154.684 145.612 164.598C145.058 165.894 144.592 167.226 144.217 168.585Z" fill="#C8DA60"/>
<path d="M308.109 220.679C307.551 222.144 306.983 223.609 306.445 225.084C306.036 226.22 305.648 227.655 304.123 227.167C303.123 226.74 302.3 225.984 301.791 225.024C301.023 223.495 300.357 221.917 299.798 220.3L299.07 220.39C299.07 223.29 299.16 226.19 299 229.07C298.913 229.465 298.73 229.832 298.468 230.14C298.205 230.447 297.871 230.686 297.495 230.834C296.14 231.123 295.801 230.087 295.861 228.841C296.06 224.954 296.17 221.057 296.509 217.191C296.569 216.513 297.705 215.357 298.193 215.427C299.352 215.549 300.421 216.109 301.183 216.991C302.28 219.155 303.226 221.393 304.013 223.689C305.01 221.187 305.787 219.194 306.485 217.161C306.963 215.736 307.91 214.829 309.285 215.367C309.77 215.588 310.2 215.914 310.544 216.321C310.889 216.727 311.139 217.204 311.279 217.719C311.787 221.315 312.391 225.061 312.787 228.673C312.885 229.563 312.45 230.478 311.597 230.752C310.196 231.203 309.615 230.546 309.458 228.605C309.259 226.133 308.757 223.28 308.618 220.699L308.109 220.679Z" fill="#C8DA60"/>
<path d="M397.434 225.392V215.847C397.434 215.459 397.683 215.111 398.055 214.999C400.248 214.338 400.647 214.753 400.693 217.19C400.763 220.688 400.793 224.167 400.693 227.685V227.685C400.693 229.398 398.617 230.169 397.07 229.433C396.716 229.265 396.42 229.052 396.228 228.781C394.638 226.316 393.181 223.768 391.863 221.147C391.684 220.818 391.465 220.519 391.026 219.841C391.026 222.991 391.026 225.721 391.026 228.452C391.026 229.498 390.906 230.605 389.631 230.326C389.206 230.194 388.82 229.961 388.506 229.646C388.192 229.332 387.959 228.946 387.827 228.522C387.638 224.535 387.648 220.549 387.727 216.563C387.727 215.965 389.345 215.228 389.674 215.268C390.82 215.408 391.574 215.237 392.132 216.014C393.687 218.409 395.114 220.884 396.408 223.429L397.434 225.392Z" fill="#C8DA60"/>
<path d="M335.685 222.692C335.685 221.017 335.784 219.333 335.685 217.709C335.585 216.084 336.243 215.197 337.768 215.157C339.97 214.986 342.184 215.076 344.365 215.426C347.734 216.184 349.348 219.094 349.288 223.18C349.199 227.077 347.365 229.638 344.026 230.505C343.408 230.655 342.771 230.734 342.143 230.824C336.93 231.532 335.744 230.515 335.744 225.343V222.722L335.685 222.692ZM339.445 217.795C339.229 217.829 339.073 218.017 339.073 218.235C339.073 221.147 339.076 224.031 339.143 226.897C339.143 227.296 340 227.944 340.518 228.004C342.452 228.213 344.255 227.705 345.152 225.831C345.697 224.849 345.959 223.735 345.91 222.612C345.86 221.49 345.502 220.404 344.873 219.473C343.597 217.62 341.703 217.435 339.445 217.795Z" fill="#C8DA60"/>
<path d="M376.585 230.604C371.751 230.604 368.991 227.614 369.021 222.521C369.051 217.429 371.901 214.638 376.834 214.668C381.458 214.668 384.309 217.738 384.319 222.641C384.329 227.544 381.468 230.614 376.585 230.604ZM380.811 222.631C380.811 219.302 379.266 217.359 376.605 217.369C373.944 217.379 372.419 219.362 372.449 222.681C372.449 225.82 374.044 227.794 376.555 227.843C379.067 227.893 380.801 225.96 380.811 222.661V222.631Z" fill="#C8DA60"/>
<path d="M356.115 224.265V229.429C356.115 229.849 355.825 230.216 355.414 230.301C353.07 230.788 352.784 230.395 352.766 227.913C352.766 224.176 352.706 220.428 352.826 216.701V216.701C352.826 215.503 355.052 215.337 355.818 216.258C355.887 216.34 355.945 216.425 355.989 216.514C356.043 216.621 356.062 216.741 356.075 216.86C356.238 218.313 356.261 219.778 356.144 221.236H362.214C362.132 219.664 362.155 218.09 362.284 216.522V216.522C362.443 215.304 364.806 215.176 365.391 216.257C365.434 216.338 365.46 216.419 365.463 216.502C365.605 220.801 365.549 225.101 365.543 229.409C365.542 229.796 365.296 230.143 364.925 230.254C362.822 230.883 362.401 230.415 362.373 228.013C362.373 226.827 362.373 225.641 362.373 224.265H356.115Z" fill="#C8DA60"/>
<path d="M316.126 227.568C316.329 227.251 316.734 227.154 317.092 227.27C318.318 227.666 319.583 227.932 320.865 228.064C321.111 228.064 321.356 227.985 321.599 227.86C322.724 227.284 322.908 225.626 321.975 224.773C321.844 224.654 321.71 224.538 321.573 224.426C320.479 223.968 319.361 223.569 318.224 223.23C317.384 222.942 316.663 222.382 316.178 221.638C315.692 220.894 315.469 220.009 315.543 219.124C315.53 218.189 315.861 217.282 316.473 216.574C317.085 215.867 317.935 215.409 318.862 215.287C320.727 215.019 322.624 215.067 324.473 215.427C325.988 215.726 326.596 216.931 325.669 218.416C324.171 218.078 322.648 217.865 321.114 217.779V217.779C319.828 217.779 319.579 220.235 320.716 220.838V220.838C321.971 221.496 323.427 221.765 324.702 222.423C325.513 222.789 326.178 223.415 326.591 224.202C327.005 224.99 327.143 225.893 326.984 226.768C326.745 228.701 325.639 230.216 323.765 230.455C321.602 230.751 319.403 230.67 317.267 230.216C315.61 229.857 315.349 228.779 316.126 227.568Z" fill="#C8DA60"/>
<path d="M408.307 229.167C408.307 229.597 408.004 229.971 407.579 230.041C405.375 230.404 404.987 229.963 404.969 227.764C404.969 223.708 404.969 219.642 404.969 215.576V215.576C405.026 215.16 405.401 214.886 405.817 214.828C408.111 214.512 408.287 214.844 408.287 217.36C408.306 221.248 408.307 225.144 408.307 229.167Z" fill="#C8DA60"/>
</svg>
