<svg width="143" height="143" viewBox="0 0 143 143" fill="none" xmlns="http://www.w3.org/2000/svg">
<circle cx="71.5" cy="71.5" r="71.5" fill="#E3CB61" fill-opacity="0.5"/>
<path d="M85.0795 33.3621C85.0795 34.137 84.4559 34.7607 83.681 34.7607C82.925 34.7607 82.3013 34.137 82.3013 33.3621C82.3013 32.6061 82.925 31.9824 83.681 31.9824C84.4559 31.9824 85.0795 32.6061 85.0795 33.3621Z" stroke="#D2E0CA" stroke-width="0.468513" stroke-linecap="round" stroke-linejoin="round"/>
<path d="M124.109 133.474H19.536C17.0412 133.474 15 131.433 15 128.939V120.641C15 118.147 17.0412 116.105 19.536 116.105H124.109C126.604 116.105 128.645 118.147 128.645 120.641V128.939C128.645 131.433 126.604 133.474 124.109 133.474Z" fill="#DDD9D7"/>
<path d="M124.109 131.301H19.536C17.0412 131.301 15 129.26 15 126.765V13.536C15 11.0412 17.0412 9 19.536 9H124.109C126.604 9 128.645 11.0412 128.645 13.536V126.765C128.645 129.26 126.604 131.301 124.109 131.301Z" fill="#F6F1EF"/>
<path d="M128.645 26.558V13.0446C128.645 10.8144 126.831 9 124.619 9H19.0446C16.8144 9 15 10.8144 15 13.0446V26.558H128.645Z" fill="#B2C557"/>
<path d="M36.2432 35.459V121.529" stroke="#D2E0CA" stroke-width="0.976069" stroke-miterlimit="10"/>
<path d="M60.188 35.459V121.529" stroke="#D2E0CA" stroke-width="0.976069" stroke-miterlimit="10"/>
<path d="M84.1353 35.459V121.529" stroke="#D2E0CA" stroke-width="0.976069" stroke-miterlimit="10"/>
<path d="M108.081 35.459V121.529" stroke="#D2E0CA" stroke-width="0.976069" stroke-miterlimit="10"/>
<path d="M19.9131 54.9824H124.656" stroke="#D2E0CA" stroke-width="0.976069" stroke-miterlimit="10"/>
<path d="M19.9131 77.0947H124.656" stroke="#D2E0CA" stroke-width="0.976069" stroke-miterlimit="10"/>
<path d="M19.9131 99.1895H124.656" stroke="#D2E0CA" stroke-width="0.976069" stroke-miterlimit="10"/>
<path opacity="0.38" d="M111.634 83.1438H85.0418C83.5298 83.1438 82.3013 81.9153 82.3013 80.3844V53.7922C82.3013 52.2803 83.5298 51.0518 85.0418 51.0518H111.634C113.146 51.0518 114.393 52.2803 114.393 53.7922V80.3844C114.393 81.9153 113.146 83.1438 111.634 83.1438Z" fill="#D2E0CA"/>
<path d="M109.803 80.9026H83.2106C81.6986 80.9026 80.4512 79.6552 80.4512 78.1432V51.551C80.4512 50.039 81.6986 48.8105 83.2106 48.8105H109.803C111.315 48.8105 112.562 50.039 112.562 51.551V78.1432C112.562 79.6552 111.315 80.9026 109.803 80.9026Z" fill="#2C4120"/>
<path opacity="0.48" d="M40.6273 17.7699C40.6273 20.208 38.6617 22.1736 36.2425 22.1736C33.8045 22.1736 31.8389 20.208 31.8389 17.7699C31.8389 15.3507 33.8045 13.3662 36.2425 13.3662C38.6617 13.3662 40.6273 15.3507 40.6273 17.7699Z" fill="#02442C"/>
<path opacity="0.48" d="M111.635 17.7699C111.635 20.208 109.669 22.1736 107.231 22.1736C104.793 22.1736 102.828 20.208 102.828 17.7699C102.828 15.3507 104.793 13.3662 107.231 13.3662C109.669 13.3662 111.635 15.3507 111.635 17.7699Z" fill="#02442C"/>
<path d="M36.2432 17.7695H107.231" stroke="#0C724B" stroke-width="5.77833" stroke-linecap="round" stroke-linejoin="round"/>
<path d="M94.654 61.8623V68.9609H93.1531V63.2868H93.1115L91.4859 64.3059V62.9749L93.2432 61.8623H94.654ZM98.9338 69.058C98.4439 69.058 98.0072 68.9679 97.6236 68.7876C97.2423 68.6074 96.9396 68.359 96.7155 68.0424C96.4913 67.7258 96.3746 67.363 96.3654 66.954H97.8212C97.8373 67.229 97.9529 67.452 98.1678 67.623C98.3827 67.794 98.638 67.8795 98.9338 67.8795C99.1695 67.8795 99.3775 67.8275 99.5577 67.7235C99.7403 67.6172 99.8824 67.4705 99.984 67.2833C100.088 67.0938 100.14 66.8766 100.14 66.6317C100.14 66.3821 100.087 66.1626 99.9806 65.9731C99.8766 65.7836 99.7322 65.6357 99.5473 65.5294C99.3624 65.4231 99.151 65.3688 98.913 65.3665C98.705 65.3665 98.5028 65.4093 98.3064 65.4948C98.1123 65.5803 97.961 65.697 97.8524 65.8449L96.5179 65.6057L96.8541 61.8623H101.194V63.0893H98.0915L97.9078 64.8674H97.9494C98.0742 64.6918 98.2625 64.5462 98.5144 64.4307C98.7663 64.3151 99.0482 64.2574 99.3601 64.2574C99.7876 64.2574 100.169 64.3579 100.504 64.5589C100.839 64.76 101.104 65.0361 101.298 65.3873C101.492 65.7363 101.588 66.1383 101.585 66.5936C101.588 67.0719 101.477 67.4971 101.253 67.8691C101.031 68.2388 100.72 68.53 100.32 68.7426C99.9228 68.9528 99.4606 69.058 98.9338 69.058Z" fill="white"/>
<path d="M110.342 73.9118C110.665 75.5018 109.637 77.0522 108.047 77.3749C106.457 77.6975 104.907 76.6701 104.584 75.0801C104.262 73.4901 105.289 71.9396 106.879 71.617C108.469 71.2944 110.019 72.3218 110.342 73.9118Z" fill="#F0C91D"/>
<mask id="mask0_1261_4069" style="mask-type:luminance" maskUnits="userSpaceOnUse" x="104" y="71" width="7" height="7">
<path d="M110.382 73.8786C110.705 75.4686 109.677 77.019 108.087 77.3417C106.497 77.6643 104.947 76.6369 104.624 75.0469C104.302 73.4569 105.329 71.9064 106.919 71.5838C108.509 71.2612 110.059 72.2886 110.382 73.8786Z" fill="white"/>
</mask>
<g mask="url(#mask0_1261_4069)">
<path d="M107.559 70.9589C107.206 71.0795 107.066 71.528 107.144 71.8925C107.223 72.2569 107.458 72.5699 107.656 72.8802C107.991 73.4222 108.235 74.0618 108.103 74.681C107.972 75.3002 107.345 75.8409 106.728 75.6918C106.243 75.5739 105.915 75.101 105.456 74.9235C105.307 74.8748 105.15 74.8563 104.994 74.8692C104.838 74.882 104.686 74.926 104.547 74.9985C104.408 75.0709 104.285 75.1704 104.185 75.2911C104.085 75.4118 104.01 75.5513 103.965 75.7013" stroke="black" stroke-width="0.444471" stroke-miterlimit="10"/>
</g>
<g style="mix-blend-mode:multiply" opacity="0.26">
<path d="M107.969 72.7847C107.202 72.9743 106.569 73.5367 106.176 74.2074C105.754 74.9131 105.594 75.745 105.725 76.5569C105.748 76.6845 105.78 76.8103 105.82 76.9336C105.446 76.6857 105.136 76.3545 104.912 75.9661C104.535 75.2924 104.439 74.4975 104.644 73.7533C104.849 73.0092 105.338 72.3755 106.007 71.9894C106.675 71.6032 107.468 71.4956 108.215 71.6898C108.962 71.884 109.603 72.3645 109.999 73.0272C110.031 73.0841 110.058 73.1437 110.088 73.202C109.459 72.805 108.721 72.599 107.969 72.7847Z" fill="#FDC026"/>
</g>
</svg>
