<svg width="390" height="844" viewBox="0 0 390 844" fill="none" xmlns="http://www.w3.org/2000/svg">
<g clip-path="url(#clip0_2126_330)">
<rect width="390" height="844" fill="url(#paint0_linear_2126_330)"/>
<path d="M-164.629 710.526C-255.409 666.462 -293.279 557.15 -249.215 466.371C-205.152 375.591 -95.8396 337.721 -5.06015 381.785C85.7193 425.849 123.59 535.161 79.5259 625.94C35.4621 716.719 -73.8499 754.59 -164.629 710.526ZM-31.9209 437.123C-92.138 407.894 -164.648 433.014 -193.878 493.232C-223.107 553.449 -197.986 625.959 -137.769 655.188C-77.5515 684.417 -5.04104 659.296 24.188 599.079C53.4171 538.862 28.2963 466.352 -31.9209 437.123Z" fill="#C6D85F" fill-opacity="0.2"/>
<path d="M292.95 173.629C207.925 132.359 172.456 29.9761 213.726 -55.0488C254.997 -140.074 357.379 -175.544 442.404 -134.273C527.429 -93.0023 562.899 9.38038 521.628 94.4053C480.358 179.43 377.975 214.9 292.95 173.629ZM417.246 -82.4429C360.846 -109.819 292.932 -86.2908 265.556 -29.8908C238.18 26.5091 261.708 94.4232 318.108 121.799C374.508 149.176 442.422 125.647 469.798 69.2473C497.175 12.8473 473.646 -55.0667 417.246 -82.4429Z" fill="#C6D85F" fill-opacity="0.2"/>
</g>
<defs>
<linearGradient id="paint0_linear_2126_330" x1="19" y1="14" x2="462" y2="860.5" gradientUnits="userSpaceOnUse">
<stop/>
<stop offset="1" stop-color="#112705"/>
</linearGradient>
<clipPath id="clip0_2126_330">
<rect width="390" height="844" fill="white"/>
</clipPath>
</defs>
</svg>
